<svg version="1.1" xmlns:xlink="http://www.w3.org/1999/xlink" xmlns="http://www.w3.org/2000/svg" viewBox="0 359.19960000000003 897.5999999999999 242.4" id="visual" style="max-height: 500px" width="897.5999999999999" height="242.4"><rect fill="#08090a" height="600" width="900" y="0" x="0"/><path fill="#8746eb" d="M0 375L113 391L225 399L338 441L450 433L563 441L675 382L788 438L900 379L900 601L788 601L675 601L563 601L450 601L338 601L225 601L113 601L0 601Z"/><path fill="#7336d2" d="M0 459L113 446L225 468L338 478L450 452L563 423L675 471L788 472L900 480L900 601L788 601L675 601L563 601L450 601L338 601L225 601L113 601L0 601Z"/><path fill="#6027b9" d="M0 471L113 496L225 483L338 449L450 465L563 488L675 495L788 458L900 475L900 601L788 601L675 601L563 601L450 601L338 601L225 601L113 601L0 601Z"/><path fill="#4d17a1" d="M0 520L113 511L225 513L338 501L450 513L563 498L675 524L788 528L900 533L900 601L788 601L675 601L563 601L450 601L338 601L225 601L113 601L0 601Z"/><path fill="#390489" d="M0 540L113 559L225 535L338 535L450 539L563 533L675 545L788 539L900 565L900 601L788 601L675 601L563 601L450 601L338 601L225 601L113 601L0 601Z"/></svg>